<svg width="200" height="212" viewBox="0 0 200 212" fill="none" xmlns="http://www.w3.org/2000/svg">
<path d="M159.096 28.1933C154.659 20.4925 146.443 15.7399 137.567 15.7399H132.712L108.674 96.1149L149.224 94.7938L83.5276 195.967L73.3017 211.707L97.0978 195.967H137.567C146.443 195.967 154.659 191.215 159.096 183.514L196.672 118.315C201.109 110.614 201.109 101.109 196.672 93.4083L159.096 28.1933Z" fill="url(#paint0_linear)"/>
<path d="M91.3257 123.632L50.7758 124.953L121.698 15.7399L131.892 0L108.095 15.7399H62.4327C53.5413 15.7399 45.3413 20.4925 40.9036 28.1933L3.32824 93.3922C-1.10941 101.093 -1.10941 110.598 3.32824 118.299L40.9036 183.498C45.3413 191.199 53.5573 195.951 62.4327 195.951H69.2982L91.3257 123.632Z" fill="url(#paint1_linear)"/>
<defs>
<linearGradient id="paint0_linear" x1="207.731" y1="38.2766" x2="36.1143" y2="209.553" gradientUnits="userSpaceOnUse">
<stop stop-color="#FFED00"/>
<stop offset="0.513" stop-color="#E6007E"/>
<stop offset="1" stop-color="#009FE3"/>
</linearGradient>
<linearGradient id="paint1_linear" x1="167.943" y1="-1.59073" x2="-3.67527" y2="169.687" gradientUnits="userSpaceOnUse">
<stop stop-color="#FFED00"/>
<stop offset="0.513" stop-color="#E6007E"/>
<stop offset="1" stop-color="#009FE3"/>
</linearGradient>
</defs>
</svg>
